<svg xmlns="http://www.w3.org/2000/svg" width="802" height="651" viewBox="0 0 802 651">
  <g id="Group_44" data-name="Group 44" transform="translate(-664 -217)">
    <g id="logo-withtext-dark">
      <text id="monsters_in_movies" data-name="monsters in movies" transform="translate(1065 785)" fill="#0a0907" font-size="63" font-family="ArialMT, Arial"><tspan x="-350.038" y="0">MONSTERS IN MOVIES</tspan></text>
      <g id="logo-dark" transform="translate(854.097 232)">
        <path id="Path_32" data-name="Path 32" d="M0,7.044S-1.621-67.381,34.56-113.53C64.251-151.4,131.9-162.338,140.033-163.6c44.87-6.958,103.954,7.423,134.438,26.532,17.946,11.249,32.469,22.255,39.962,41.787,11.08,28.878,16.33,145.833,18.422,210.04.3,9.343,1.38,41.712,1.38,41.712s-24.4,21.957-66.618,32.479c-19.547,4.872-75.527,13.955-141.128,9.525-18.526-1.251-28.117-.446-58.676-7.263s-63.559-20-63.559-20L0,7.044" transform="translate(44.297 221.79)" fill="#363636" stroke="#fff" stroke-width="1"/>
        <g id="Group_36" data-name="Group 36" transform="translate(0 258.299)">
          <path id="Path_33" data-name="Path 33" d="M0,0S24.465,28.7,37.072,45.753C45.62,57.317,48.821,64.622,49.887,67.745c.151.437-8.889,4.378-20.089,13.523C20.737,88.666,9.956,98.5,5.951,102.191l-1.471.989L4.4,100.09,0,0" transform="translate(374.082)" fill="#363636"/>
          <path id="Path_34" data-name="Path 34" d="M44.218-2.31S24.4,23.107,13.271,42.141C4.572,57.025.312,74.4.312,74.4l-.494,2.136a149.673,149.673,0,0,1,23.364,5.317,165.178,165.178,0,0,1,22.485,9.669c.3.154-1.449-93.827-1.449-93.827" transform="translate(0.181 7.936)" fill="#363636"/>
          <path id="Path_35" data-name="Path 35" d="M.379-.3s4.069,12.918,5.8,20.086c.915,3.792-.25,7.466-2.835,9.021-.51.309-27.626,3.508-57.59,2.016-27.237-1.356-57.03-7.217-68.176-11.526-8.329-3.855,3.649-25.3,7.648-31.808l1.428-2.02A418.662,418.662,0,0,0-57.225-2.972C-28.794.586.379-.3.379-.3" transform="translate(202.87 163.312)" fill="#363636"/>
          <path id="Path_36" data-name="Path 36" d="M0-.229S-1.876,26.332,3.79,28.888c2.855,1.288,30.54,1.331,56.783-2.982a209.22,209.22,0,0,0,46.219-13.171c.308-.135,4.344-1.363.888-9.672C104.9-3.617,96.159-16.03,93.018-20.4A218.363,218.363,0,0,1,52.323-7.325C29.068-2.281,0-.229,0-.229" transform="translate(252.465 161.401)" fill="#363636"/>
        </g>
        <g id="Group_35" data-name="Group 35" transform="translate(74.772)">
          <path id="Path_37" data-name="Path 37" d="M-.333,0S1.853-3.48,18.9,16.8c9.273,11.033,24.011,28.717,34.726,43.135,8.659,11.65,20.786,27.318,20.786,27.318s-.789,4.34-6.5,9.757-10.536,9.746-18.286,14.307c-10.578,8.579-25.574,10.441-31.982,11.824-.376.081-3.195.469-3.195.469s.957-22.7-2.205-40.251A102.271,102.271,0,0,0,3.689,56.551c-.032-.067-.931-1.771-.931-1.771A47.378,47.378,0,0,1-8.821,67.58a103.172,103.172,0,0,1-16.965,9.928l-2.5,1.563s-4.487-14.573,2.5-34.341A184.7,184.7,0,0,1-8.322,9.293,43.263,43.263,0,0,1-.333,0" transform="translate(29.706 0.229)" fill="#363636" stroke="#4b4b4b" stroke-width="1"/>
          <path id="Path_38" data-name="Path 38" d="M0-.742S46.46-39.149,73.183-54.967s32.873-10.189,32.873-10.189a4.514,4.514,0,0,1,1.058,3.227c.07,2.744-1.143,7.223-1.058,12.76.158,10.334,1.785,24.18,3.239,33.84,2.7,17.921,6.451,21.446,6.451,21.446S104.253,2.723,96.3-3.7,84.419-20.23,84.419-20.23A88.479,88.479,0,0,1,73.958,4.432c-8.006,13.174-21.04,28.421-21.04,28.421s-18.892-.03-31.133-6.451C14.294,22.472,6.342,13.946,2.3,7.092A16.742,16.742,0,0,1,0-.742" transform="translate(180.656 76.116)" fill="#363636" stroke="#4b4b4b" stroke-width="1"/>
        </g>
        <g id="Group_37" data-name="Group 37" transform="translate(142.603 144.345)">
          <path id="Path_29" data-name="Path 29" d="M-6.072-4.973s-4.714,30.914,4.72,48.183S21.595,63.94,31.666,64.1c3.934.064,12.651-1.37,16.716-6.448,2.7-3.372,5.5-10.454,6.041-18.782.1-1.471.33-10.671-1.668-16.153-.756-2.092-2.285-.933-4.374-2.552-4.918-3.815-10.687-2.051-22.9-7.409S-6.072-4.973-6.072-4.973" transform="translate(46.367 26.811)" fill="#fff" stroke="#fff" stroke-width="2"/>
          <path id="Path_30" data-name="Path 30" d="M-4.764-4.973S-14.713,55.419,5.2,89.154s48.426,40.5,69.682,40.814c8.3.126,26.7-2.676,35.278-12.6,5.7-6.586,11.6-20.421,12.75-36.691.114-1.612.461-12.486,0-20.8s-1.843-12.468-1.843-12.468-31.33-3.944-62.787-17.039S-4.764-4.973-4.764-4.973" transform="translate(7.25 5.491)" fill="none" stroke="#fff" stroke-width="2"/>
          <path id="Path_31" data-name="Path 31" d="M0,0S32.316,22.068,63.924,35.51s63.264,17.123,63.264,17.123" transform="translate(1.696)" fill="none" stroke="#fff" stroke-width="3"/>
        </g>
        <path id="Path_42" data-name="Path 42" d="M0,0S18.579,7.7,32.594,10.855,56.06,12.613,56.06,12.613" transform="translate(179.768 317.063)" fill="#363636" stroke="#fff" stroke-linecap="round" stroke-width="4"/>
      </g>
    </g>
    <rect id="Rectangle_31" data-name="Rectangle 31" width="802" height="651" transform="translate(664 217)" fill="none"/>
  </g>
</svg>
