<svg xmlns="http://www.w3.org/2000/svg" width="428.78" height="458.523" viewBox="0 0 428.78 458.523">
  <g id="logo-dark" transform="translate(-572.175 -246.713)">
    <path id="Path_32" data-name="Path 32" d="M0,9S-1.639-66.269,34.952-112.942c30.028-38.3,98.444-49.362,106.669-50.637,45.379-7.037,105.134,7.507,135.963,26.833,18.149,11.377,32.837,22.507,40.415,42.261C329.2-65.279,334.515,53,336.63,117.938c.308,9.449,1.4,42.185,1.4,42.185s-24.677,22.206-67.374,32.847c-19.769,4.927-76.384,14.113-142.729,9.633-18.736-1.265-28.436-.451-59.342-7.345S4.3,175.028,4.3,175.028L0,9" transform="translate(616.974 469.7)" fill="#363636" stroke="#fff" stroke-width="1"/>
    <g id="Group_36" data-name="Group 36" transform="translate(-2.144)">
      <path id="Path_33" data-name="Path 33" d="M0,0S24.743,29.022,37.493,46.272c8.645,11.7,11.882,19.083,12.96,22.241.152.442-8.99,4.428-20.317,13.676C20.973,89.672,10.069,99.621,6.019,103.35l-1.487,1-.083-3.125L0,0" transform="translate(952.644 508.5)" fill="#363636"/>
      <path id="Path_34" data-name="Path 34" d="M44.722-2.31s-20.048,25.7-31.3,44.955C4.626,57.7.318,75.266.318,75.266l-.5,2.16A151.37,151.37,0,0,1,23.448,82.8a167.051,167.051,0,0,1,22.74,9.778c.3.156-1.466-94.892-1.466-94.892" transform="translate(574.5 516.5)" fill="#363636"/>
      <path id="Path_35" data-name="Path 35" d="M1.8-.14S5.92,12.924,7.67,20.174C8.6,24.009,7.418,27.724,4.8,29.3c-.515.312-27.94,3.548-58.243,2.039-27.546-1.372-57.677-7.3-68.949-11.657-8.423-3.9,3.691-25.582,7.735-32.169l1.445-2.042A423.411,423.411,0,0,0-56.452-2.841C-27.7.757,1.8-.14,1.8-.14" transform="translate(778.069 673.5)" fill="#363636"/>
      <path id="Path_36" data-name="Path 36" d="M0,0S-1.894,26.862,3.836,29.447c2.888,1.3,30.886,1.346,57.427-3.016a211.593,211.593,0,0,0,46.743-13.32c.311-.137,4.393-1.378.9-9.782C106.094-3.427,97.253-15.98,94.077-20.4A220.841,220.841,0,0,1,52.92-7.177C29.4-2.075,0,0,0,0" transform="translate(829.644 671.5)" fill="#363636"/>
    </g>
    <g id="Group_35" data-name="Group 35">
      <path id="Path_37" data-name="Path 37" d="M0,0S2.211-3.517,19.451,16.995c9.379,11.158,24.283,29.043,35.12,43.624C63.329,72.4,75.593,88.247,75.593,88.247s-.8,4.39-6.577,9.868-10.656,9.857-18.493,14.469c-10.7,8.676-25.864,10.56-32.345,11.958-.38.082-3.231.475-3.231.475s.967-22.953-2.23-40.708A103.431,103.431,0,0,0,4.068,57.2c-.033-.068-.942-1.791-.942-1.791A47.916,47.916,0,0,1-8.584,68.35,104.343,104.343,0,0,1-25.742,78.39l-2.53,1.581s-4.538-14.738,2.53-34.731A186.8,186.8,0,0,1-8.079,9.4,43.754,43.754,0,0,1,0,0" transform="translate(677.5 247.5)" fill="#363636" stroke="#4b4b4b" stroke-width="1"/>
      <path id="Path_38" data-name="Path 38" d="M0,0S46.987-38.843,74.014-54.84s33.246-10.3,33.246-10.3a4.565,4.565,0,0,1,1.07,3.264c.07,2.775-1.156,7.305-1.07,12.9.159,10.452,1.8,24.454,3.276,34.224,2.728,18.124,6.525,21.69,6.525,21.69S105.436,3.5,97.388-3,85.377-19.71,85.377-19.71A89.483,89.483,0,0,1,74.8,5.233C66.7,18.556,53.518,33.976,53.518,33.976s-19.107-.031-31.486-6.525C14.456,23.477,6.414,14.854,2.325,7.922A16.932,16.932,0,0,1,0,0" transform="translate(830.5 323.5)" fill="#363636" stroke="#4b4b4b" stroke-width="1"/>
    </g>
    <g id="Group_37" data-name="Group 37" transform="translate(-570.938 -310.247)">
      <path id="Path_29" data-name="Path 29" d="M-6.058-4.973s-4.768,31.265,4.774,48.729S21.922,64.722,32.108,64.886c3.978.065,12.795-1.385,16.906-6.522,2.732-3.41,5.559-10.572,6.11-18.995.1-1.488.334-10.792-1.686-16.336-.764-2.116-2.311-.943-4.423-2.581-4.974-3.858-10.808-2.075-23.163-7.493S-6.058-4.973-6.058-4.973" transform="translate(1334.144 730.558)" fill="#fff" stroke="#fff" stroke-width="2"/>
      <path id="Path_30" data-name="Path 30" d="M-4.735-4.973S-14.8,56.1,5.339,90.222,54.314,131.179,75.812,131.5c8.4.127,27-2.706,35.678-12.74,5.765-6.661,11.731-20.653,12.895-37.107.116-1.631.466-12.628,0-21.04S122.52,48,122.52,48s-31.685-3.988-63.5-17.232S-4.735-4.973-4.735-4.973" transform="translate(1294.582 708.997)" fill="none" stroke="#fff" stroke-width="2"/>
      <path id="Path_31" data-name="Path 31" d="M0,0S32.683,22.318,64.649,35.913,128.631,53.23,128.631,53.23" transform="translate(1289.048 703.5)" fill="none" stroke="#fff" stroke-width="3"/>
    </g>
    <path id="Path_42" data-name="Path 42" d="M0,0S18.79,7.789,32.964,10.978,56.7,12.757,56.7,12.757" transform="translate(753.981 567.93)" fill="#363636" stroke="#fff" stroke-linecap="round" stroke-width="4"/>
  </g>
</svg>
