<svg xmlns="http://www.w3.org/2000/svg" width="523" height="599" viewBox="0 0 523 599">
  <g id="no-image" transform="translate(-611 -298)">
    <g id="Group_41" data-name="Group 41">
      <rect id="Rectangle_24" data-name="Rectangle 24" width="523" height="599" transform="translate(611 298)" fill="#9b9b9b"/>
      <g id="logo-withtext-dark" transform="translate(-165.944 136.5)">
        <g id="logo-dark" transform="translate(855.402 232)">
          <path id="Path_32" data-name="Path 32" d="M0-16.5S-1.4-80.762,29.84-120.61c25.638-32.7,84.049-42.144,91.072-43.233,38.743-6.008,89.761,6.41,116.082,22.909,15.5,9.713,28.035,19.216,34.506,36.081,9.567,24.935,14.1,125.921,15.907,181.362.263,8.067,1.192,36.016,1.192,36.016s-21.069,18.959-57.522,28.044c-16.878,4.206-65.215,12.05-121.859,8.224-16-1.08-24.278-.385-50.664-6.271S3.67,125.252,3.67,125.252L0-16.5" transform="translate(38.25 214.088)" fill="#bdbdbd"/>
          <g id="Group_36" data-name="Group 36" transform="translate(0 223.032)">
            <path id="Path_33" data-name="Path 33" d="M0,0S21.125,24.778,32.011,39.506C39.391,49.491,42.155,55.8,43.075,58.5c.13.378-7.675,3.78-17.346,11.677C17.906,76.56,8.6,85.054,5.139,88.238l-1.27.854L3.8,86.424,0,0" transform="translate(323.005)" fill="#bdbdbd"/>
            <path id="Path_34" data-name="Path 34" d="M38.156-2.31S21.039,19.636,11.434,36.072C3.923,48.924.245,63.922.245,63.922l-.426,1.845a129.236,129.236,0,0,1,20.174,4.591,142.626,142.626,0,0,1,19.415,8.348c.257.133-1.251-81.016-1.251-81.016" transform="translate(0.181 7.168)" fill="#bdbdbd"/>
            <path id="Path_35" data-name="Path 35" d="M-16.781-2.245S-13.268,8.909-11.773,15.1c.79,3.274-.216,6.446-2.448,7.79-.44.267-23.854,3.029-49.727,1.741-23.518-1.171-49.243-6.232-58.867-9.952-7.192-3.328,3.151-21.842,6.6-27.465l1.233-1.744A361.5,361.5,0,0,0-66.52-4.55,369.225,369.225,0,0,0-16.781-2.245" transform="translate(192.28 142.998)" fill="#bdbdbd"/>
            <path id="Path_36" data-name="Path 36" d="M-.044-2.984S-1.661,19.951,3.231,22.158C5.7,23.27,29.6,23.307,52.261,19.583A180.653,180.653,0,0,0,92.17,8.211c.266-.117,3.751-1.177.766-8.352-2.4-5.769-9.947-16.486-12.66-20.264A188.548,188.548,0,0,1,45.138-9.111C25.058-4.756-.044-2.984-.044-2.984" transform="translate(218.035 142.149)" fill="#bdbdbd"/>
          </g>
          <g id="Group_35" data-name="Group 35" transform="translate(64.562 0)">
            <path id="Path_37" data-name="Path 37" d="M-4.344-.034s1.888-3,16.607,14.51C20.271,24,33,39.273,42.248,51.721,49.725,61.781,60.2,75.31,60.2,75.31s-.681,3.748-5.615,8.425-9.1,8.416-15.789,12.353C29.658,103.5,16.71,105.1,11.177,106.3c-.324.07-2.758.405-2.758.405s.826-19.6-1.9-34.755A88.307,88.307,0,0,0-.87,48.8c-.028-.058-.8-1.529-.8-1.529a40.909,40.909,0,0,1-10,11.052,89.086,89.086,0,0,1-14.649,8.572l-2.16,1.349s-3.875-12.583,2.16-29.653a159.482,159.482,0,0,1,15.08-30.6,37.356,37.356,0,0,1,6.9-8.026" transform="translate(29.706 0.229)" fill="#bdbdbd"/>
            <path id="Path_38" data-name="Path 38" d="M0-9.67S40.117-42.833,63.191-56.491s28.385-8.8,28.385-8.8A3.9,3.9,0,0,1,92.49-62.5c.06,2.369-.987,6.237-.914,11.018a245.668,245.668,0,0,0,2.8,29.22C96.7-6.791,99.943-3.747,99.943-3.747s-9.925-2.932-16.8-8.481S72.893-26.5,72.893-26.5A76.4,76.4,0,0,1,63.86-5.2c-6.913,11.375-18.167,24.54-18.167,24.54S29.38,19.312,18.81,13.768C12.342,10.375,5.476,3.012,1.985-2.906A14.456,14.456,0,0,1,0-9.67" transform="translate(155.99 74.752)" fill="#bdbdbd"/>
          </g>
        </g>
      </g>
    </g>
  </g>
</svg>
